<?xml version="1.0" encoding="UTF-8"?>
<svg width="288px" height="144px" viewBox="0 0 288 144" version="1.1" xmlns="http://www.w3.org/2000/svg" xmlns:xlink="http://www.w3.org/1999/xlink">
    <title>Artboard Copy</title>
    <defs>
        <linearGradient x1="57.5976314%" y1="-52.6569811%" x2="2.94990141%" y2="73.0799005%" id="linearGradient-1">
            <stop stop-color="#32C5FF" offset="0%"></stop>
            <stop stop-color="#B620E0" offset="62.7499313%"></stop>
            <stop stop-color="#FFAA12" offset="100%"></stop>
        </linearGradient>
    </defs>
    <g id="Artboard-Copy" stroke="none" stroke-width="1" fill="none" fill-rule="evenodd">
        <g id="logo-sm" transform="translate(98.000000, 7.000000)" fill-rule="nonzero">
            <path d="M13.6842105,0 L78.6842105,0 C86.2417913,0 92.3684211,6.12662974 92.3684211,13.6842105 L92.3684211,65 L92.3684211,90.3968062 C92.3684211,94.850158 90.2013631,99.0249667 86.5593834,101.587841 L54.0593834,124.458212 C49.3354724,127.782445 43.0329486,127.782445 38.3090377,124.458212 L5.80903762,101.587841 C2.16705777,99.0249667 0,94.850158 0,90.3968062 L0,65 L0,13.6842105 C0,6.12662974 6.12662974,0 13.6842105,0 Z" id="Rectangle" fill="url(#linearGradient-1)"></path>
            <polygon id="Rectangle-Copy" fill="#FFFFFF" points="54.3991377 17.4328555 71.4267967 17.4328555 71.8421053 17.4328555 71.8421053 34.1890317 71.8421053 50.9452077 71.8421053 67.7013839 71.8421053 85.8539083 59.4817258 85.8539083 59.4817258 32.5720607 31.4433036 85.8539083 17.1052632 85.8539083"></polygon>
        </g>
    </g>
</svg>