<?xml version="1.0" encoding="UTF-8"?>
<svg width="134px" height="38px" viewBox="0 0 134 38" version="1.1" xmlns="http://www.w3.org/2000/svg" xmlns:xlink="http://www.w3.org/1999/xlink">
    <title>Artboard Copy</title>
    <defs>
        <linearGradient x1="57.5976314%" y1="-52.6569811%" x2="2.94990141%" y2="73.0799005%" id="linearGradient-1">
            <stop stop-color="#32C5FF" offset="0%"></stop>
            <stop stop-color="#B620E0" offset="62.7499313%"></stop>
            <stop stop-color="#FFAA12" offset="100%"></stop>
        </linearGradient>
    </defs>
    <g id="Artboard-Copy" stroke="none" stroke-width="1" fill="none" fill-rule="evenodd">
        <g id="logo" fill-rule="nonzero">
            <g id="Group" transform="translate(30.315789, 8.526316)" fill="#FFFFFF">
                <path d="M17.2262522,15.4559988 L17.2262522,0.358579172 L14.4462864,0.358579172 L14.4462864,15.4559988 L17.2262522,15.4559988 Z M8.34342295,0 L12.1528679,0 L12.2457812,0 L12.2457812,3.70943972 L12.2457812,7.41887942 L12.2457812,11.1283191 L12.2457812,15.1468788 L9.48050469,15.1468788 L9.48050469,3.35147878 L3.20772076,15.1468788 L0,15.1468788 L8.34342295,0 Z M22.29638,20.8421053 L22.29638,13.8442473 C22.68028,14.3610958 23.180012,14.7895361 23.7955758,15.1295681 C24.4111396,15.4696001 25.1226784,15.639616 25.9301923,15.639616 C26.8700855,15.639616 27.7206225,15.394793 28.4818037,14.905147 C29.2429847,14.4155009 29.8453106,13.7252361 30.2887813,12.8343523 C30.7322521,11.9434685 30.9539874,10.9199723 30.9539874,9.76386354 C30.9539874,8.60775486 30.7322521,7.59105926 30.2887813,6.71377676 C29.8453106,5.83649427 29.2429847,5.15983064 28.4818037,4.68378587 C27.7206225,4.20774111 26.8700855,3.96971873 25.9301923,3.96971873 C25.1226784,3.96971873 24.4045206,4.14313504 23.7757189,4.48996765 C23.1469172,4.83680026 22.6538041,5.26864087 22.29638,5.78548947 L22.29638,4.153336 L19.5164144,4.153336 L19.5164144,20.8421053 L22.29638,20.8421053 Z M25.1954871,13.1301801 C24.6924457,13.1301801 24.2191896,12.9975676 23.7757189,12.7323427 C23.3322482,12.4671177 22.974824,12.0828816 22.7034464,11.5796343 C22.4320689,11.076387 22.29638,10.4847313 22.29638,9.80466736 C22.29638,9.12460346 22.4320689,8.53294781 22.7034464,8.0297005 C22.974824,7.52645317 23.3322482,7.14221704 23.7757189,6.8769921 C24.2191896,6.61176717 24.6924457,6.4791547 25.1954871,6.4791547 C25.7117664,6.4791547 26.1916414,6.60836685 26.6351121,6.86679114 C27.0785829,7.12521545 27.436007,7.50265094 27.7073847,7.99909762 C27.9787622,8.4955443 28.1144511,9.08379962 28.1144511,9.76386354 C28.1144511,10.4575288 27.9787622,11.0559851 27.7073847,11.5592324 C27.436007,12.0624797 27.0785829,12.4501162 26.6351121,12.7221417 C26.1916414,12.9941673 25.7117664,13.1301801 25.1954871,13.1301801 Z M35.309267,15.4559988 L35.309267,9.21301176 C35.309267,8.31532736 35.5310023,7.62506245 35.974473,7.14221704 C36.4179437,6.65937164 37.0235791,6.41794894 37.7913791,6.41794894 C38.5459412,6.41794894 39.1416482,6.65937164 39.5784999,7.14221704 C40.0153517,7.62506245 40.2337775,8.31532736 40.2337775,9.21301176 L40.2337775,15.4559988 L43.0137432,15.4559988 L43.0137432,8.82537531 C43.0137432,7.8052794 42.8317217,6.93139723 42.4676785,6.2037288 C42.1036354,5.47606037 41.5972845,4.92520858 40.9486258,4.5511734 C40.2999672,4.17713823 39.558643,3.99012065 38.7246534,3.99012065 C37.9965671,3.99012065 37.3346705,4.12953376 36.7389636,4.40835998 C36.1432566,4.6871862 35.6666911,5.07142233 35.309267,5.56106837 L35.309267,0.358579172 L32.5293013,0.358579172 L32.5293013,15.4559988 L35.309267,15.4559988 Z M49.4937108,15.639616 C50.3144626,15.639616 51.0392394,15.4661998 51.6680411,15.1193672 C52.2968428,14.7725345 52.7899559,14.3338933 53.14738,13.8034434 L53.14738,15.4559988 L55.9472026,15.4559988 L55.9472026,4.153336 L53.14738,4.153336 L53.14738,5.76508755 C52.7767179,5.24823895 52.283605,4.81979867 51.6680411,4.47976669 C51.0524773,4.13973472 50.3343195,3.96971873 49.5135677,3.96971873 C48.5736745,3.96971873 47.7231375,4.20774111 46.9619564,4.68378587 C46.2007753,5.15983064 45.5984494,5.83989459 45.1549787,6.72397772 C44.7115079,7.60806085 44.4897727,8.62135613 44.4897727,9.76386354 C44.4897727,10.9199723 44.7115079,11.9434685 45.1549787,12.8343523 C45.5984494,13.7252361 46.2007753,14.4155009 46.9619564,14.905147 C47.7231375,15.394793 48.5670556,15.639616 49.4937108,15.639616 Z M61.8791764,15.1468788 L58.0697315,15.1468788 L57.9768182,15.1468788 L57.9768182,11.4374391 L57.9768182,7.7279994 L57.9768182,4.01855968 L60.7420947,4.01855968 L60.7420947,11.7954 L65.2992705,4.01855968 L68.5069911,4.01855968 L61.8791764,15.1468788 Z M50.228416,13.1301801 C49.7253746,13.1301801 49.2521186,12.9941673 48.8086479,12.7221417 C48.3651771,12.4501162 48.007753,12.0590793 47.7363753,11.5490314 C47.4649978,11.0389834 47.3293089,10.4439275 47.3293089,9.76386354 C47.3293089,9.08379962 47.4649978,8.4955443 47.7363753,7.99909762 C48.007753,7.50265094 48.3618677,7.12521545 48.7987194,6.86679114 C49.2355712,6.60836685 49.7121367,6.4791547 50.228416,6.4791547 C50.7446954,6.4791547 51.2278799,6.61176717 51.6779696,6.8769921 C52.1280592,7.14221704 52.4854834,7.52305286 52.750242,8.01949954 C53.0150007,8.51594622 53.14738,9.11100217 53.14738,9.80466736 C53.14738,10.4983326 53.0150007,11.0933885 52.750242,11.5898353 C52.4854834,12.086282 52.1280592,12.4671177 51.6779696,12.7323427 C51.2278799,12.9975676 50.7446954,13.1301801 50.228416,13.1301801 Z M73.5644829,15.639616 C74.8750381,15.639616 75.9804054,15.2893831 76.8805847,14.5889173 C77.7807641,13.8884514 78.389709,12.9941673 78.7074193,11.906065 L75.7090278,11.906065 C75.272176,12.8173507 74.5374708,13.2729936 73.5049122,13.2729936 C72.7900639,13.2729936 72.1877379,13.0417718 71.6979344,12.5793283 C71.208131,12.1168848 70.9301344,11.4776247 70.8639448,10.661548 L78.9059883,10.661548 C78.95894,10.3351173 78.9854159,9.96788274 78.9854159,9.55984434 C78.9854159,8.45814078 78.7570616,7.48224902 78.3003529,6.63216908 C77.8436443,5.78208915 77.2016046,5.12582744 76.3742339,4.66338395 C75.5468631,4.20094048 74.6102795,3.96971873 73.5644829,3.96971873 C72.4789724,3.96971873 71.5192224,4.20774111 70.6852327,4.68378587 C69.851243,5.15983064 69.2025843,5.83989459 68.7392567,6.72397772 C68.2759291,7.60806085 68.0442653,8.63495741 68.0442653,9.80466736 C68.0442653,10.9607761 68.2792386,11.980872 68.7491851,12.8649552 C69.2191318,13.7490383 69.8744094,14.4325026 70.715018,14.915348 C71.5556267,15.3981934 72.5054483,15.639616 73.5644829,15.639616 Z M76.1061658,8.74376764 L70.8838016,8.74376764 C70.9897051,7.98209602 71.2776302,7.38704007 71.7475767,6.95859978 C72.2175233,6.53015949 72.7966828,6.31593935 73.4850552,6.31593935 C74.2131415,6.31593935 74.8287053,6.53696013 75.3317468,6.9790017 C75.8347881,7.42104327 76.0929278,8.00929858 76.1061658,8.74376764 L76.1061658,8.74376764 Z M84.7703921,15.639616 C85.6440956,15.639616 86.4085861,15.4934023 87.0638638,15.2009748 C87.7191414,14.9085474 88.2221828,14.5039093 88.5729879,13.9870607 C88.9237932,13.4702121 89.0991958,12.8853571 89.0991958,12.2324957 C89.0859578,11.4844254 88.8906984,10.8825687 88.5134173,10.4269259 C88.1361362,9.97128303 87.689356,9.63465139 87.1730767,9.41703095 C86.6567974,9.19941049 86.0015197,8.98859066 85.2072438,8.78457148 C84.4262058,8.58055229 83.8503558,8.37993343 83.4796937,8.18271489 C83.1090317,7.98549634 82.9237006,7.69646916 82.9237006,7.31563335 C82.9237006,6.97560138 83.0593894,6.71037644 83.330767,6.51995853 C83.6021446,6.32954063 83.9893541,6.23433168 84.4923955,6.23433168 C85.0351508,6.23433168 85.468693,6.36694415 85.7930223,6.63216908 C86.1173517,6.89739402 86.2993732,7.25442759 86.339087,7.70326981 L88.9999113,7.70326981 C88.9204837,6.56076237 88.4902509,5.652877 87.7092129,4.97961369 C86.9281749,4.30635038 85.8823784,3.96971873 84.5718231,3.96971873 C83.6848817,3.96971873 82.9137721,4.1193328 82.2584945,4.41856093 C81.6032169,4.71778908 81.1001755,5.12582744 80.7493703,5.64267604 C80.3985651,6.15952465 80.2231625,6.73077836 80.2231625,7.35643719 C80.2231625,8.11810881 80.411803,8.72336572 80.7890841,9.17220793 C81.1663652,9.62105012 81.6164548,9.95428146 82.1393531,10.1719019 C82.6622515,10.3895224 83.3340765,10.6003422 84.1548283,10.8043614 C84.9491041,11.0219819 85.5282637,11.2226007 85.8923068,11.406218 C86.25635,11.5898353 86.4383715,11.8652611 86.4383715,12.2324957 C86.4383715,12.5725276 86.2894448,12.8513539 85.9915913,13.0689744 C85.6937378,13.2865948 85.2800525,13.395405 84.7505352,13.395405 C84.20778,13.395405 83.7543808,13.2525916 83.3903377,12.9669648 C83.0262946,12.6813379 82.8177972,12.320904 82.7648454,11.8856631 L79.9650228,11.8856631 C80.0047366,12.5793283 80.233091,13.2117878 80.6500858,13.7830415 C81.0670807,14.3542953 81.6330022,14.8065378 82.3478506,15.139769 C83.0626989,15.4730004 83.8702127,15.639616 84.7703921,15.639616 Z M96.6315789,15.4559988 L96.6315789,13.0485724 L95.3408804,13.0485724 C94.9172665,13.0485724 94.6161038,12.9635645 94.4373917,12.7935484 C94.2586797,12.6235324 94.1693236,12.3481066 94.1693236,11.9672707 L94.1693236,6.49955661 L96.6315789,6.49955661 L96.6315789,4.153336 L94.1693236,4.153336 L94.1693236,1.35827318 L91.3695011,1.35827318 L91.3695011,4.153336 L90.0589458,4.153336 L90.0589458,6.49955661 L91.3695011,6.49955661 L91.3695011,11.9468689 C91.3695011,14.2862888 92.541058,15.4559988 94.8841721,15.4559988 L96.6315789,15.4559988 Z" id="Alphavest-Copy"></path>
            </g>
            <path d="M3.78947368,0.845634621 L21.7894737,0.845634621 C23.8823422,0.845634621 25.5789474,2.54223978 25.5789474,4.6351083 L25.5789474,18.8456346 L25.5789474,25.8785963 C25.5789474,27.1118322 24.978839,28.2679331 23.9702908,28.9776522 L14.9702908,35.3109856 C13.6621308,36.2315426 11.9168165,36.2315426 10.6086566,35.3109856 L1.60865657,28.9776522 C0.600108306,28.2679331 0,27.1118322 0,25.8785963 L0,18.8456346 L0,4.6351083 C0,2.54223978 1.69660516,0.845634621 3.78947368,0.845634621 Z" id="Rectangle" fill="url(#linearGradient-1)"></path>
            <polygon id="Rectangle-Copy" fill="#FFFFFF" points="15.0643766 5.67319461 19.7797283 5.67319461 19.8947368 5.67319461 19.8947368 10.3133665 19.8947368 14.9535384 19.8947368 19.5937101 19.8947368 24.620563 16.4718625 24.620563 16.4718625 9.86558989 8.70737637 24.620563 4.73684211 24.620563"></polygon>
        </g>
    </g>
</svg>