<?xml version="1.0" encoding="UTF-8"?>
<svg width="134px" height="39px" viewBox="0 0 134 39" version="1.1" xmlns="http://www.w3.org/2000/svg" xmlns:xlink="http://www.w3.org/1999/xlink">
    <title>Artboard Copy 4</title>
    <defs>
        <linearGradient x1="57.5976314%" y1="-52.6569811%" x2="2.94990141%" y2="73.0799005%" id="linearGradient-1">
            <stop stop-color="#32C5FF" offset="0%"></stop>
            <stop stop-color="#B620E0" offset="62.7499313%"></stop>
            <stop stop-color="#FFAA12" offset="100%"></stop>
        </linearGradient>
    </defs>
    <g id="Artboard-Copy-4" stroke="none" stroke-width="1" fill="none" fill-rule="evenodd">
        <g id="Group" transform="translate(32.000000, 8.000000)" fill="#11142D" fill-rule="nonzero">
            <path d="M18.1832662,16.3146654 L18.1832662,0.378500237 L15.2488579,0.378500237 L15.2488579,16.3146654 L18.1832662,16.3146654 Z M8.80694645,0 L12.8280272,0 L12.9261024,0 L12.9261024,3.9155197 L12.9261024,7.83103939 L12.9261024,11.7465591 L12.9261024,15.9883721 L10.0071994,15.9883721 L10.0071994,3.53767205 L3.38592747,15.9883721 L0,15.9883721 L8.80694645,0 Z M23.5350678,22 L23.5350678,14.6133721 C23.9402956,15.1589345 24.4677904,15.611177 25.1175522,15.9700997 C25.767314,16.3290223 26.5183828,16.5084836 27.3707585,16.5084836 C28.362868,16.5084836 29.2606571,16.2500593 30.0641261,15.7332107 C30.867595,15.2163621 31.5033834,14.4877492 31.9714914,13.5473719 C32.4395994,12.6069945 32.6736534,11.5266374 32.6736534,10.3063004 C32.6736534,9.08596346 32.4395994,8.01278477 31.9714914,7.08676436 C31.5033834,6.16074395 30.867595,5.4464879 30.0641261,4.9439962 C29.2606571,4.44150451 28.362868,4.19025866 27.3707585,4.19025866 C26.5183828,4.19025866 25.7603273,4.37330921 25.0965922,4.7394103 C24.432857,5.10551139 23.9123488,5.56134314 23.5350678,6.10690555 L23.5350678,4.38407689 L20.6006596,4.38407689 L20.6006596,22 L23.5350678,22 Z M26.5952364,13.8596346 C26.0642482,13.8596346 25.5647001,13.7196547 25.0965922,13.4396951 C24.6284842,13.1597354 24.2512031,12.7541528 23.964749,12.2229473 C23.6782949,11.6917418 23.5350678,11.0672164 23.5350678,10.3493711 C23.5350678,9.63152587 23.6782949,9.00700047 23.964749,8.47579497 C24.2512031,7.94458946 24.6284842,7.53900688 25.0965922,7.25904722 C25.5647001,6.97908757 26.0642482,6.83910774 26.5952364,6.83910774 C27.1401979,6.83910774 27.6467326,6.97549834 28.1148406,7.24827954 C28.5829486,7.52106075 28.9602296,7.91946488 29.2466838,8.44349193 C29.5331379,8.96751898 29.676365,9.58845515 29.676365,10.3063004 C29.676365,11.0385026 29.5331379,11.6702065 29.2466838,12.201412 C28.9602296,12.7326175 28.5829486,13.1417893 28.1148406,13.4289274 C27.6467326,13.7160655 27.1401979,13.8596346 26.5952364,13.8596346 Z M37.2708929,16.3146654 L37.2708929,9.72484575 C37.2708929,8.77728999 37.5049469,8.04867703 37.9730548,7.53900688 C38.4411628,7.02933673 39.0804446,6.77450166 39.8909002,6.77450166 C40.6873824,6.77450166 41.3161842,7.02933673 41.7773055,7.53900688 C42.2384268,8.04867703 42.4689874,8.77728999 42.4689874,9.72484575 L42.4689874,16.3146654 L45.4033956,16.3146654 L45.4033956,9.31567394 C45.4033956,8.23890603 45.2112618,7.31647485 44.826994,6.5483804 C44.4427263,5.78028595 43.9082448,5.19883128 43.2235495,4.80401637 C42.5388543,4.40920147 41.7563454,4.21179402 40.876023,4.21179402 C40.1074875,4.21179402 39.4088189,4.3589523 38.7800171,4.65326887 C38.1512153,4.94758543 37.6481739,5.35316801 37.2708929,5.87001661 L37.2708929,0.378500237 L34.3364847,0.378500237 L34.3364847,16.3146654 L37.2708929,16.3146654 Z M52.2433614,16.5084836 C53.1097105,16.5084836 53.8747527,16.3254331 54.5384878,15.959332 C55.202223,15.5932309 55.7227312,15.1302207 56.1000122,14.5703014 L56.1000122,16.3146654 L59.0553805,16.3146654 L59.0553805,4.38407689 L56.1000122,4.38407689 L56.1000122,6.08537019 C55.7087578,5.53980778 55.1882497,5.08756526 54.5384878,4.72864262 C53.888726,4.36971998 53.1306706,4.19025866 52.2643215,4.19025866 C51.272212,4.19025866 50.3744229,4.44150451 49.570954,4.9439962 C48.767485,5.4464879 48.1316966,6.16433318 47.6635886,7.09753204 C47.1954806,8.0307309 46.9614267,9.10032036 46.9614267,10.3063004 C46.9614267,11.5266374 47.1954806,12.6069945 47.6635886,13.5473719 C48.1316966,14.4877492 48.767485,15.2163621 49.570954,15.7332107 C50.3744229,16.2500593 51.2652254,16.5084836 52.2433614,16.5084836 Z M65.3169084,15.9883721 L61.2958277,15.9883721 L61.1977525,15.9883721 L61.1977525,12.0728524 L61.1977525,8.1573327 L61.1977525,4.241813 L64.1166555,4.241813 L64.1166555,12.4507 L68.9270077,4.241813 L72.3129351,4.241813 L65.3169084,15.9883721 Z M53.0188836,13.8596346 C52.4878954,13.8596346 51.9883474,13.7160655 51.5202394,13.4289274 C51.0521314,13.1417893 50.6748504,12.7290282 50.3883962,12.1906443 C50.1019421,11.6522603 49.958715,11.0241457 49.958715,10.3063004 C49.958715,9.58845515 50.1019421,8.96751898 50.3883962,8.44349193 C50.6748504,7.91946488 51.0486381,7.52106075 51.5097594,7.24827954 C51.9708807,6.97549834 52.4739221,6.83910774 53.0188836,6.83910774 C53.5638451,6.83910774 54.0738732,6.97908757 54.5489679,7.25904722 C55.0240625,7.53900688 55.4013436,7.94100024 55.680811,8.46502729 C55.9602785,8.98905434 56.1000122,9.61716896 56.1000122,10.3493711 C56.1000122,11.0815733 55.9602785,11.7096879 55.680811,12.233715 C55.4013436,12.7577421 55.0240625,13.1597354 54.5489679,13.4396951 C54.0738732,13.7196547 53.5638451,13.8596346 53.0188836,13.8596346 Z M77.6513986,16.5084836 C79.0347624,16.5084836 80.201539,16.1387933 81.1517283,15.3994127 C82.1019177,14.660032 82.7446928,13.7160655 83.0800537,12.5675131 L79.9150849,12.5675131 C79.4539636,13.5294257 78.6784414,14.0103821 77.5885184,14.0103821 C76.8339563,14.0103821 76.1981678,13.7663147 75.681153,13.2781799 C75.1641383,12.7900451 74.8706974,12.1152705 74.8008306,11.2538562 L83.2896543,11.2538562 C83.3455478,10.9092905 83.3734946,10.521654 83.3734946,10.0909468 C83.3734946,8.92803749 83.1324539,7.89792952 82.6503725,7.00062292 C82.1682912,6.10331633 81.4905826,5.41059563 80.6172469,4.92246084 C79.7439111,4.43432606 78.755295,4.19025866 77.6513986,4.19025866 C76.505582,4.19025866 75.4925125,4.44150451 74.6121901,4.9439962 C73.7318676,5.4464879 73.0471723,6.16433318 72.5581043,7.09753204 C72.0690363,8.0307309 71.8245023,9.11467727 71.8245023,10.3493711 C71.8245023,11.5697081 72.0725296,12.646476 72.5685843,13.5796749 C73.0646391,14.5128738 73.756321,15.2343083 74.6436301,15.7439784 C75.5309393,16.2536486 76.5335288,16.5084836 77.6513986,16.5084836 Z M80.3342861,9.22953251 L74.8217906,9.22953251 C74.9335776,8.4255458 75.2374985,7.79743118 75.7335532,7.34518866 C76.2296079,6.89294613 76.840943,6.66682487 77.5675583,6.66682487 C78.3360938,6.66682487 78.9858556,6.90012458 79.5168438,7.36672402 C80.0478319,7.83332345 80.3203127,8.45425961 80.3342861,9.22953251 L80.3342861,9.22953251 Z M89.4798583,16.5084836 C90.4021009,16.5084836 91.2090631,16.3541469 91.9007451,16.0454734 C92.592427,15.7368 93.1234152,15.309682 93.4937095,14.7641196 C93.8640039,14.2185572 94.0491511,13.6012103 94.0491511,12.9120788 C94.0351777,12.122449 93.8290705,11.4871559 93.4308294,11.0061996 C93.0325882,10.5252432 92.5609869,10.1699098 92.0160254,9.94019934 C91.4710639,9.71048885 90.7793819,9.48795681 89.9409796,9.27260323 C89.1165506,9.05724964 88.5087089,8.84548529 88.1174545,8.63731016 C87.7262001,8.42913503 87.5305729,8.12405078 87.5305729,7.72205743 C87.5305729,7.36313479 87.6737999,7.08317513 87.9602541,6.88217845 C88.2467082,6.68118178 88.6554293,6.58068344 89.1864175,6.58068344 C89.7593258,6.58068344 90.2169537,6.72066327 90.5593013,7.00062292 C90.901649,7.28058258 91.0937828,7.65745135 91.1357029,8.13122924 L93.9443508,8.13122924 C93.8605106,6.92524917 93.406376,5.96692572 92.581947,5.2562589 C91.757518,4.54559207 90.6536216,4.19025866 89.2702577,4.19025866 C88.3340418,4.19025866 87.5200928,4.34818462 86.8284109,4.66403654 C86.136729,4.97988847 85.6057408,5.41059563 85.2354464,5.95615804 C84.8651521,6.50172046 84.6800049,7.10471049 84.6800049,7.76512814 C84.6800049,8.56911486 84.8791254,9.20799715 85.2773666,9.68177504 C85.6756077,10.1555529 86.1507023,10.5072971 86.7026505,10.7370076 C87.2545988,10.9667181 87.9637474,11.1892501 88.8300965,11.4046037 C89.6684988,11.6343142 90.2798339,11.8460785 90.6641016,12.0398968 C91.0483694,12.233715 91.2405032,12.5244423 91.2405032,12.9120788 C91.2405032,13.2710014 91.0833028,13.565318 90.7689019,13.7950285 C90.454501,14.024739 90.0178332,14.1395942 89.4588983,14.1395942 C88.88599,14.1395942 88.407402,13.9888467 88.0231342,13.6873517 C87.6388665,13.3858567 87.4187859,13.0053987 87.3628924,12.5459777 L84.4075241,12.5459777 C84.4494442,13.2781799 84.6904849,13.945776 85.1306461,14.548766 C85.5708074,15.1517561 86.168169,15.6291232 86.9227312,15.9808673 C87.6772933,16.3326115 88.529669,16.5084836 89.4798583,16.5084836 Z M102,16.3146654 L102,13.7734931 L100.637596,13.7734931 C100.190448,13.7734931 99.872554,13.6837625 99.6839135,13.5043011 C99.495273,13.3248398 99.4009527,13.0341125 99.4009527,12.6321191 L99.4009527,6.86064309 L102,6.86064309 L102,4.38407689 L99.4009527,4.38407689 L99.4009527,1.4337328 L96.4455845,1.4337328 L96.4455845,4.38407689 L95.0622206,4.38407689 L95.0622206,6.86064309 L96.4455845,6.86064309 L96.4455845,12.6105838 C96.4455845,15.0799715 97.6822279,16.3146654 100.155515,16.3146654 L102,16.3146654 Z" id="Alphavest-Copy"></path>
        </g>
        <path d="M4,-0.107385678 L23,-0.107385678 C25.209139,-0.107385678 27,1.68347532 27,3.89261432 L27,18.8926143 L27,26.3162961 C27,27.6180451 26.3665523,28.8383738 25.3019736,29.5875218 L15.8019736,36.272707 C14.4211381,37.2444061 12.5788619,37.2444061 11.1980264,36.272707 L1.69802638,29.5875218 C0.633447656,28.8383738 4.86831736e-15,27.6180451 0,26.3162961 L0,18.8926143 L0,3.89261432 C-2.705415e-16,1.68347532 1.790861,-0.107385678 4,-0.107385678 Z" id="Rectangle" fill="url(#linearGradient-1)" fill-rule="nonzero"></path>
        <polygon id="Rectangle-Copy" fill="#FFFFFF" fill-rule="nonzero" points="15.9012864 4.98837209 20.8786021 4.98837209 21 4.98837209 21 9.88633128 21 14.7842905 21 19.6822496 21 24.9883721 17.386966 24.9883721 17.386966 9.41367822 9.1911195 24.9883721 5 24.9883721"></polygon>
    </g>
</svg>