<?xml version="1.0" encoding="UTF-8"?>
<svg width="36px" height="38px" viewBox="0 0 36 38" version="1.1" xmlns="http://www.w3.org/2000/svg" xmlns:xlink="http://www.w3.org/1999/xlink">
    <title>Artboard Copy 3</title>
    <defs>
        <linearGradient x1="57.5976314%" y1="-52.6569811%" x2="2.94990141%" y2="73.0799005%" id="linearGradient-1">
            <stop stop-color="#32C5FF" offset="0%"></stop>
            <stop stop-color="#B620E0" offset="62.7499313%"></stop>
            <stop stop-color="#FFAA12" offset="100%"></stop>
        </linearGradient>
    </defs>
    <g id="Artboard-Copy-3" stroke="none" stroke-width="1" fill="none" fill-rule="evenodd">
        <g id="Group-2" transform="translate(5.000000, 0.000000)" fill-rule="nonzero">
            <path d="M4,0 L23,0 C25.209139,-4.05812251e-16 27,1.790861 27,4 L27,19 L27,26.4236818 C27,27.7254308 26.3665523,28.9457595 25.3019736,29.6949074 L15.8019736,36.3800926 C14.4211381,37.3517917 12.5788619,37.3517917 11.1980264,36.3800926 L1.69802638,29.6949074 C0.633447656,28.9457595 4.86831736e-15,27.7254308 0,26.4236818 L0,19 L0,4 C-2.705415e-16,1.790861 1.790861,4.05812251e-16 4,0 Z" id="Rectangle" fill="url(#linearGradient-1)"></path>
            <polygon id="Rectangle-Copy" fill="#FFFFFF" points="15.9012864 5.09575777 20.8786021 5.09575777 21 5.09575777 21 9.99371695 21 14.8916761 21 19.7896353 21 25.0957578 17.386966 25.0957578 17.386966 9.52106389 9.1911195 25.0957578 5 25.0957578"></polygon>
        </g>
    </g>
</svg>