<svg xmlns="http://www.w3.org/2000/svg" width="12" height="10" viewBox="0 0 12 10">
  <path fill="#11142D" d="M5.354,0.646 C5.52492628,0.816727645 5.54933726,1.0852484 5.412,1.284 L5.354,1.354 L2.206,4.5 L11.329,4.5 C11.5879891,4.49952323 11.8044744,4.69689164 11.8278753,4.9548218 C11.8512762,5.21275196 11.6738461,5.44585866 11.419,5.492 L11.319,5.5 L2.206,5.5 L5.354,8.646 C5.52492628,8.81672765 5.54933726,9.0852484 5.412,9.284 L5.354,9.354 C5.18327235,9.52492628 4.9147516,9.54933726 4.716,9.412 L4.646,9.354 L0.635,5.34 C0.623,5.328 0.612,5.314 0.602,5.3 L0.647,5.35 C0.620841175,5.3236518 0.597698499,5.29447191 0.578,5.263 L0.558,5.228 L0.538,5.186 L0.524,5.146 L0.512,5.1 L0.506,5.07 C0.502895519,5.05079691 0.500892246,5.03143194 0.499999517,5.012 L0.499999517,4.99 C0.499999517,4.97 0.502,4.948 0.505,4.927 L0.499999517,5 C0.499999517,4.96470988 0.503638142,4.92951373 0.511,4.895 L0.523,4.849 L0.538,4.809 L0.558,4.769 L0.578,4.734 L0.588,4.717 L0.601,4.699 C0.611,4.685 0.621,4.672 0.634,4.659 L0.646,4.647 L4.646,0.647 C4.84124993,0.451809031 5.15775007,0.451809031 5.353,0.647 L5.354,0.646 Z" transform="rotate(180 6.165 5)"/>
</svg>
