<svg xmlns="http://www.w3.org/2000/svg" width="13" height="10" viewBox="0 0 13 10"><path fill="#11142d" d="M8.613.2l.094.083 4 4c.028.028.055.06.08.1l-.08-.1a1.01 1.01 0 0 1 .097.112l.05.075.02.037.03.06.022.052.022.06.014.046.016.065.01.052.007.06.003.055V5v.033l-.003.052L13 5a1.01 1.01 0 0 1-.011.149l-.01.052-.015.065-.014.046-.02.06-.023.052-.03.06-.02.036-.05.074-.013.018-.083.094-4 4a1 1 0 0 1-1.497-1.32l.083-.094L9.585 6H1.67a1 1 0 0 1-.117-1.993L1.67 4h7.914L7.293 1.707A1 1 0 0 1 7.21.387l.083-.094A1 1 0 0 1 8.613.21z"/></svg>