<svg xmlns="http://www.w3.org/2000/svg" width="12" height="10" viewBox="0 0 12 10"><path fill="#11142d" d="M5.354.646a.5.5 0 0 1 .058.638l-.058.07L2.206 4.5h9.123a.5.5 0 0 1 .09.992l-.1.008H2.206l3.148 3.146a.5.5 0 0 1 .058.638l-.058.07a.5.5 0 0 1-.638.058l-.07-.058L.635 5.34c-.012-.012-.023-.026-.033-.04l.045.05a.5.5 0 0 1-.069-.087l-.02-.035-.02-.042-.014-.04-.012-.046-.006-.03A.51.51 0 0 1 .5 5.012V4.99c0-.02.002-.042.005-.063L.5 5a.5.5 0 0 1 .011-.105l.012-.046.015-.04.02-.04.02-.035.01-.017.013-.018c.01-.014.02-.027.033-.04l.012-.012 4-4a.5.5 0 0 1 .707 0z"/></svg>