<svg xmlns="http://www.w3.org/2000/svg" width="18" height="16" viewBox="0 0 18 16">
  <path fill="#11142D" d="M13.5,4.5 C14.0128358,4.5 14.4355072,4.88604019 14.4932723,5.38337887 L14.5,5.5 L14.5,13.5 C14.5,14.0128358 14.1139598,14.4355072 13.6166211,14.4932723 L13.5,14.5 L2.5,14.5 C1.98716416,14.5 1.56449284,14.1139598 1.50672773,13.6166211 L1.5,13.5 L1.5,5.5 C1.5,4.94771525 1.94771525,4.5 2.5,4.5 C3.01283584,4.5 3.43550716,4.88604019 3.49327227,5.38337887 L3.5,5.5 L3.5,12.5 L12.5,12.5 L12.5,5.5 C12.5,4.98716416 12.8860402,4.56449284 13.3833789,4.50672773 L13.5,4.5 Z M10.5,5.5 C11.0522847,5.5 11.5,5.94771525 11.5,6.5 L11.5,6.5 L11.5,9.5 C11.5,10.0522847 11.0522847,10.5 10.5,10.5 L10.5,10.5 L5.5,10.5 C4.94771525,10.5 4.5,10.0522847 4.5,9.5 L4.5,9.5 L4.5,6.5 C4.5,5.94771525 4.94771525,5.5 5.5,5.5 L5.5,5.5 Z M9.5,7.5 L6.5,7.5 L6.5,8.5 L9.5,8.5 L9.5,7.5 Z M15.5,-0.5 C16.0522847,-0.5 16.5,-0.0522847498 16.5,0.5 L16.5,0.5 L16.5,3.5 C16.5,4.05228475 16.0522847,4.5 15.5,4.5 L15.5,4.5 L0.5,4.5 C-0.0522847498,4.5 -0.5,4.05228475 -0.5,3.5 L-0.5,3.5 L-0.5,0.5 C-0.5,-0.0522847498 -0.0522847498,-0.5 0.5,-0.5 L0.5,-0.5 Z M14.5,1.5 L1.5,1.5 L1.5,2.5 L14.5,2.5 L14.5,1.5 Z" transform="translate(1 1)"/>
</svg>
