<svg xmlns="http://www.w3.org/2000/svg" width="21" height="21" viewBox="0 0 21 21"><path fill="#1b1d21" d="M14.334.25c3.486 0 5.916 2.262 5.916 5.666h0v8.67c0 3.404-2.43 5.665-5.916 5.665h0-8.168C2.683 20.25.25 17.982.25 14.585h0v-8.67C.25 2.512 2.68.25 6.166.25h0zm0 1.5H6.166c-2.68 0-4.416 1.615-4.416 4.166h0v8.67c0 2.544 1.74 4.165 4.416 4.165h8.168c2.68 0 4.416-1.615 4.416-4.165h0v-8.67c0-2.55-1.735-4.166-4.416-4.166h0zM10.46 5.973a.75.75 0 0 1 .071.977l-.073.084L7.977 9.5h6.36a.75.75 0 0 1 .102 1.493l-.102.007H7.98l2.477 2.467a.75.75 0 0 1 .075.976l-.072.084a.75.75 0 0 1-.976.075L9.4 14.53 5.635 10.78a.77.77 0 0 1-.066-.076l.066.076c-.037-.037-.07-.076-.097-.118l-.028-.047-.017-.03-.028-.064-.012-.034-.018-.064-.008-.036-.008-.06-.004-.06v-.034l.004-.06-.004.078c0-.047.004-.093.013-.137l.007-.035.018-.063.013-.037.026-.058.02-.037.03-.046.023-.034.007-.008c.02-.026.042-.05.066-.075h.001L9.4 5.97a.75.75 0 0 1 1.061.002z"/></svg>