<svg xmlns="http://www.w3.org/2000/svg" width="22" height="22" viewBox="0 0 22 22">
  <path fill="#FFF" d="M14.686,-0.75 C18.3314519,-0.75 20.75,1.84783382 20.75,5.585 L20.75,5.585 L20.75,14.415 C20.75,18.1525057 18.3311101,20.75 14.684,20.75 L14.684,20.75 L5.314,20.75 C1.66854809,20.75 -0.75,18.1521662 -0.75,14.415 L-0.75,14.415 L-0.75,5.585 C-0.75,1.85116118 1.67559844,-0.75 5.316,-0.75 L5.316,-0.75 Z M14.686,0.75 L5.316,0.75 C2.52835546,0.75 0.75,2.65707131 0.75,5.585 L0.75,5.585 L0.75,14.415 C0.75,17.3467579 2.52189258,19.25 5.314,19.25 L5.314,19.25 L14.684,19.25 C17.4778637,19.25 19.25,17.3470138 19.25,14.415 L19.25,14.415 L19.25,5.585 C19.25,2.65324208 17.4781074,0.75 14.686,0.75 L14.686,0.75 Z M10,13.663 L10,13.663 L11.5,13.663 C11.5,14.4914271 10.8284271,15.163 10,15.163 L10,15.163 L9.85553999,15.1561334 C9.09488808,15.0834487 8.5,14.4426961 8.5,13.663 L8.5,13.663 L10,13.663 Z M13.667,8.5 L13.81146,8.50686658 C14.5721119,8.57955132 15.167,9.22030388 15.167,10 L15.167,10 C15.167,10.8284271 14.4954271,11.5 13.667,11.5 L13.667,11.5 L13.667,10 L13.667,10 L13.667,11.5 L11.5,11.5 L11.5,13.662 L10,13.662 L10,13.652 L8.5,13.653 L8.5,11.5 L6.333,11.5 L6.18853999,11.4931334 C5.42788808,11.4204487 4.833,10.7796961 4.833,10 L4.833,10 L4.83986658,9.85553999 C4.91255132,9.09488808 5.55330388,8.5 6.333,8.5 L6.333,8.5 L8.5,8.5 L8.5,6.327 L8.50686658,6.18253999 C8.57955132,5.42188808 9.22030388,4.827 10,4.827 L10,4.827 L10.14446,4.83386658 C10.9051119,4.90655132 11.5,5.54730388 11.5,6.327 L11.5,6.327 L11.5,8.5 L10.75,8.5 L10.75,9.239 L11.5,9.24 L11.5,8.5 L13.667,8.5 Z M11.5,10.74 L10.001,10.739 L10,10.75 L10,10.75 L10.75,10.75 L10.75,11.5 L11.5,11.5 L11.5,10.74 Z M9.25,10.739 L8.5,10.74 L8.5,11.5 L9.25,11.5 L9.25,10.739 Z M10,9.24 L9.25,9.239 L9.25,9.25 L10,9.25 C10,9.66421356 9.66421356,10 9.25,10 L9.329,9.995 L9.35177056,9.99684662 C9.68456652,10.0419943 9.94800573,10.3054335 9.99315338,10.6382294 L10,10.74 L10.001,10.739 L10.0068466,10.6482294 C10.0519943,10.3154335 10.3154335,10.0519943 10.6482294,10.0068466 L10.75,10 L10.75,9.99 C10.3357864,9.99 10,9.65421356 10,9.24 L10,9.24 Z M9.25,8.5 L8.5,8.5 L8.5,9.24 L9.25,9.239 L9.25,8.5 Z" transform="translate(1 1)"/>
</svg>
