<svg xmlns="http://www.w3.org/2000/svg" width="18" height="18" viewBox="0 0 18 18"><path fill="#11142d" d="M13.5 5.5a4 4 0 0 1 3.995 3.8l.005.2v4a1 1 0 0 1-.883.993l-.117.007h-2v2a1 1 0 0 1-.883.993l-.117.007h-9a1 1 0 0 1-1-1h0v-2h-2a1 1 0 0 1-.993-.883L.5 13.5v-4a4 4 0 0 1 3.8-3.995l.2-.005h9zm-1 6h-7v4h7v-4zm1-4h-9a2 2 0 0 0-1.995 1.851L2.5 9.5v3h1v-2a1 1 0 0 1 .883-.993L4.5 9.5h9a1 1 0 0 1 1 1h0v2h1v-3a2 2 0 0 0-1.851-1.995L13.5 7.5zm0-7a1 1 0 0 1 .993.883l.007.117v3a1 1 0 0 1-1.993.117L12.5 4.5v-2h-7v2a1 1 0 0 1-.883.993L4.5 5.5a1 1 0 0 1-.993-.883L3.5 4.5v-3a1 1 0 0 1 .883-.993L4.5.5h9z"/></svg>